Release info:

General
Format                                   : Matroska
Format version                           : Version 2
File size                                : 695 MiB
Duration                                 : 1h 25mn
Overall bit rate mode                    : Variable
Overall bit rate                         : 1 138 Kbps

Video
ID                                       : 1
Format                                   : MPEG-4 Visual
Format profile                           : Advanced Simple@L5
Format settings, BVOP                    : Yes
Format settings, QPel                    : No
Format settings, GMC                     : No warppoints
Format settings, Matrix                  : Default (MPEG)
Codec ID                                 : V_MS/VFW/FOURCC / XVID
Codec ID/Hint                            : XviD
Duration                                 : 1h 25mn
Bit rate                                 : 999 Kbps
Width                                    : 640 pixels
Height                                   : 272 pixels
Display aspect ratio                     : 2.35:1
Frame rate mode                          : Constant
Frame rate                               : 25.000 fps
Color space                              : YUV
Chroma subsampling                       : 4:2:0
Bit depth                                : 8 bits
Scan type                                : Progressive
Compression mode                         : Lossy
Bits/(Pixel*Frame)                       : 0.230
Stream size                              : 610 MiB (88%)
Writing library                          : XviD 64
Language                                 : English
Default                                  : Yes
Forced                                   : No

Audio
ID                                       : 2
Format                                   : MPEG Audio
Format version                           : Version 1
Format profile                           : Layer 3
Mode                                     : Joint stereo
Mode extension                           : MS Stereo
Muxing mode                              : Header stripping
Codec ID                                 : A_MPEG/L3
Codec ID/Hint                            : MP3
Duration                                 : 1h 25mn
Bit rate mode                            : Variable
Bit rate                                 : 117 Kbps
Nominal bit rate                         : 128 Kbps
Channel(s)                               : 2 channels
Sampling rate                            : 48.0 KHz
Compression mode                         : Lossy
Stream size                              : 71.2 MiB (10%)
Language                                 : English
Default                                  : Yes
Forced                                   : No

Source:
credit to original movie ripper Ltu (Thanks)

IMDB Info:

Set in the near future, an ex-jewel thief receives a gift from his son: a robot butler programmed to look after him. But soon the two companions try their luck as a heist team.

Director: Jake Schreier
Writer: Christopher D. Ford
Stars: Peter Sarsgaard, Frank Langella and Susan Sarandon

Genres: Comedy | Crime | Drama | Sci-Fi
 
http://www.imdb.com/title/tt1990314/

Screen Shot:
 
http://www.shotpix.com/images/23435386499249523512.png 
http://www.shotpix.com/images/02199073107523723142.png 
http://www.shotpix.com/images/79584224694206460008.png 
http://www.shotpix.com/images/64939480612661679637.png